<svg viewBox="0 0 460 300" xmlns="http://www.w3.org/2000/svg" font-family="DM Sans, sans-serif">
  <rect width="460" height="300" fill="#F8FAFC" rx="12"/>
  <rect width="460" height="44" fill="#1B2A4A" rx="12"/>
  <rect y="32" width="460" height="12" fill="#1B2A4A"/>
  <text x="18" y="28" font-size="12" font-weight="700" fill="white">P1 · Route Yield Intelligence</text>
  <rect x="340" y="12" width="104" height="20" fill="#0D8F8F" rx="10"/>
  <text x="392" y="26" text-anchor="middle" font-size="10" font-weight="600" fill="white">Aviation</text>
  <text x="18" y="68" font-size="9" fill="#64748B">Yield vs. Cost Floor — by Route and Cabin Class</text>
  <rect x="290" y="56" width="12" height="10" fill="#0D8F8F" rx="2"/>
  <text x="306" y="65" font-size="8" fill="#64748B">Yield/seat</text>
  <rect x="368" y="56" width="12" height="10" fill="#1B2A4A" rx="2" opacity="0.4"/>
  <text x="384" y="65" font-size="8" fill="#64748B">Cost floor</text>
  <!-- ABJ-LOS Business -->
  <text x="18" y="92" font-size="10" fill="#1B2A4A" font-weight="600">ABJ–LOS Business</text>
  <rect x="175" y="80" width="196" height="14" fill="#0D8F8F" rx="2" opacity="0.85"/>
  <rect x="175" y="94" width="136" height="14" fill="#1B2A4A" rx="2" opacity="0.3"/>
  <text x="375" y="91" font-size="9" fill="#0D8F8F" font-weight="700">₦185k</text>
  <text x="315" y="108" font-size="9" fill="#64748B">floor ₦128k</text>
  <!-- ABJ-LOS Economy -->
  <text x="18" y="128" font-size="10" fill="#1B2A4A" font-weight="600">ABJ–LOS Economy</text>
  <rect x="175" y="116" width="132" height="14" fill="#0D8F8F" rx="2" opacity="0.7"/>
  <rect x="175" y="130" width="120" height="14" fill="#1B2A4A" rx="2" opacity="0.3"/>
  <text x="311" y="127" font-size="9" fill="#0D8F8F" font-weight="700">₦125k</text>
  <text x="299" y="144" font-size="9" fill="#64748B">floor ₦114k</text>
  <!-- LOS-PHC Economy -->
  <text x="18" y="164" font-size="10" fill="#1B2A4A" font-weight="600">LOS–PHC Economy</text>
  <rect x="175" y="152" width="84" height="14" fill="#D4A843" rx="2" opacity="0.8"/>
  <rect x="175" y="166" width="100" height="14" fill="#1B2A4A" rx="2" opacity="0.3"/>
  <text x="263" y="163" font-size="9" fill="#D4A843" font-weight="700">₦79.5k</text>
  <text x="279" y="180" font-size="9" fill="#C0392B" font-weight="600">floor ₦94.8k ⚠</text>
  <!-- KAN-LOS Economy -->
  <text x="18" y="200" font-size="10" fill="#1B2A4A" font-weight="600">KAN–LOS Economy</text>
  <rect x="175" y="188" width="60" height="14" fill="#C0392B" rx="2" opacity="0.75"/>
  <rect x="175" y="202" width="108" height="14" fill="#1B2A4A" rx="2" opacity="0.3"/>
  <text x="239" y="199" font-size="9" fill="#C0392B" font-weight="700">₦56.8k</text>
  <text x="287" y="216" font-size="9" fill="#C0392B" font-weight="600">floor ₦102k ⚠</text>
  <line x1="18" y1="232" x2="442" y2="232" stroke="#E2E8F0" stroke-width="1"/>
  <rect x="18" y="244" width="200" height="20" fill="#DCFCE7" rx="4"/>
  <text x="26" y="258" font-size="9" fill="#065F46" font-weight="600">Business class: ₦57k headroom above floor</text>
  <rect x="226" y="244" width="216" height="20" fill="#FEE2E2" rx="4"/>
  <text x="234" y="258" font-size="9" fill="#991B1B" font-weight="600">2 domestic economy routes below cost floor</text>
  <rect x="18" y="268" width="260" height="20" fill="#EFF6FF" rx="4"/>
  <text x="26" y="282" font-size="9" fill="#1D4ED8" font-weight="600">Jet fuel FX premium: key cost floor driver in 2025</text>
</svg>
