<svg viewBox="0 0 460 300" xmlns="http://www.w3.org/2000/svg" font-family="DM Sans, sans-serif">
  <rect width="460" height="300" fill="#F8FAFC" rx="12"/>
  <rect width="460" height="44" fill="#1B2A4A" rx="12"/>
  <rect y="32" width="460" height="12" fill="#1B2A4A"/>
  <text x="18" y="28" font-size="12" font-weight="700" fill="white">P4 · Promotional Fare ROI</text>
  <rect x="340" y="12" width="104" height="20" fill="#0D8F8F" rx="10"/>
  <text x="392" y="26" text-anchor="middle" font-size="10" font-weight="600" fill="white">Aviation</text>
  <text x="18" y="68" font-size="9" fill="#64748B">Fare Class Profitability — Yield vs Fully-Loaded Cost per Seat</text>
  <!-- Axes -->
  <line x1="70" y1="210" x2="420" y2="210" stroke="#CBD5E1" stroke-width="1"/>
  <line x1="70" y1="65" x2="70" y2="210" stroke="#CBD5E1" stroke-width="1"/>
  <!-- Break-even diagonal -->
  <line x1="70" y1="210" x2="420" y2="60" stroke="#0D8F8F" stroke-width="1.5" stroke-dasharray="5,4"/>
  <text x="388" y="72" font-size="8" fill="#0D8F8F" font-weight="600">Break-even</text>
  <!-- Zone shading -->
  <polygon points="70,210 420,60 420,210" fill="#DCFCE7" opacity="0.18"/>
  <polygon points="70,210 70,65 420,60" fill="#FEE2E2" opacity="0.12"/>
  <!-- Axis labels -->
  <text x="245" y="228" text-anchor="middle" font-size="8" fill="#94A3B8">Yield / seat (₦000)</text>
  <text x="22" y="140" transform="rotate(-90 22 140)" font-size="8" fill="#94A3B8" text-anchor="middle">Cost / seat (₦000)</text>
  <text x="120" y="222" text-anchor="middle" font-size="7" fill="#94A3B8">50</text>
  <text x="195" y="222" text-anchor="middle" font-size="7" fill="#94A3B8">100</text>
  <text x="270" y="222" text-anchor="middle" font-size="7" fill="#94A3B8">150</text>
  <text x="345" y="222" text-anchor="middle" font-size="7" fill="#94A3B8">200</text>
  <text x="62" y="195" text-anchor="end" font-size="7" fill="#94A3B8">50</text>
  <text x="62" y="155" text-anchor="end" font-size="7" fill="#94A3B8">80</text>
  <text x="62" y="115" text-anchor="end" font-size="7" fill="#94A3B8">110</text>
  <!-- Profitable fare classes (below breakeven) -->
  <circle cx="310" cy="125" r="8" fill="#0D8F8F" opacity="0.8"/>
  <circle cx="360" cy="100" r="9" fill="#0D8F8F" opacity="0.75"/>
  <circle cx="385" cy="95" r="7" fill="#0D8F8F" opacity="0.7"/>
  <circle cx="280" cy="145" r="5" fill="#D4A843" opacity="0.8"/>
  <circle cx="340" cy="120" r="6" fill="#0D8F8F" opacity="0.65"/>
  <!-- Loss fare classes (above breakeven) -->
  <circle cx="130" cy="160" r="9" fill="#C0392B" opacity="0.75"/>
  <text x="130" y="157" text-anchor="middle" font-size="7" fill="white" font-weight="700">Eco</text>
  <text x="130" y="167" text-anchor="middle" font-size="6" fill="white">Promo</text>
  <circle cx="175" cy="148" r="7" fill="#C0392B" opacity="0.65"/>
  <text x="175" y="151" text-anchor="middle" font-size="7" fill="white" font-weight="700">Charter</text>
  <circle cx="215" cy="138" r="6" fill="#C0392B" opacity="0.6"/>
  <text x="215" y="141" text-anchor="middle" font-size="7" fill="white" font-weight="700">Disc.</text>
  <!-- Zone labels -->
  <text x="105" y="82" font-size="8" fill="#991B1B" font-weight="600" opacity="0.7">Loss zone</text>
  <text x="335" y="200" font-size="8" fill="#065F46" font-weight="600" opacity="0.7">Profit zone</text>
  <line x1="18" y1="234" x2="442" y2="234" stroke="#E2E8F0" stroke-width="1"/>
  <rect x="18" y="246" width="200" height="20" fill="#FEE2E2" rx="4"/>
  <text x="26" y="260" font-size="9" fill="#991B1B" font-weight="600">3 fare classes operating at a loss</text>
  <rect x="226" y="246" width="216" height="20" fill="#EFF6FF" rx="4"/>
  <text x="234" y="260" font-size="9" fill="#1D4ED8" font-weight="600">Promo fare: min load factor 84% to break even</text>
  <rect x="18" y="270" width="240" height="20" fill="#DCFCE7" rx="4"/>
  <text x="26" y="284" font-size="9" fill="#065F46" font-weight="600">Business class: most margin-accretive per seat flown</text>
</svg>
