<svg viewBox="0 0 460 300" xmlns="http://www.w3.org/2000/svg" font-family="system-ui, -apple-system, sans-serif">
  <rect width="460" height="300" fill="#F8FAFC" rx="12"/>
  <!-- Header -->
  <rect width="460" height="44" fill="#1B2A4A" rx="12"/>
  <rect y="32" width="460" height="12" fill="#1B2A4A"/>
  <text x="18" y="28" font-size="12" font-weight="700" fill="white">P4 · Trade Execution</text>
  <rect x="374" y="12" width="70" height="20" fill="#7C3AED" rx="10"/>
  <text x="409" y="26" text-anchor="middle" font-size="10" font-weight="600" fill="white">FMCG</text>
  <!-- Table header -->
  <rect x="18" y="54" width="424" height="22" fill="#E8EBF0" rx="4"/>
  <text x="26" y="69" font-size="9" font-weight="700" fill="#1B2A4A">Promotion</text>
  <text x="164" y="69" font-size="9" font-weight="700" fill="#1B2A4A">Depth</text>
  <text x="218" y="69" font-size="9" font-weight="700" fill="#1B2A4A">Lift</text>
  <text x="270" y="69" font-size="9" font-weight="700" fill="#1B2A4A">Net Impact</text>
  <text x="365" y="69" font-size="9" font-weight="700" fill="#1B2A4A">Status</text>
  <!-- Row 1 - profitable -->
  <rect x="18" y="76" width="424" height="22" fill="white"/>
  <text x="26" y="91" font-size="9" fill="#1B2A4A">Buy 2 Get 1 Free — SKU A</text>
  <text x="164" y="91" font-size="9" fill="#1B2A4A">33%</text>
  <text x="218" y="91" font-size="9" fill="#1B2A4A">48%</text>
  <text x="270" y="91" font-size="9" fill="#065F46" font-weight="600">+₦2.1M</text>
  <rect x="358" y="80" width="76" height="14" fill="#DCFCE7" rx="3"/>
  <text x="396" y="91" text-anchor="middle" font-size="8" fill="#065F46" font-weight="700">PROFITABLE</text>
  <!-- Row 2 - loss-making -->
  <rect x="18" y="98" width="424" height="22" fill="#FFF8F8"/>
  <text x="26" y="113" font-size="9" fill="#1B2A4A">20% Off — SKU B</text>
  <text x="164" y="113" font-size="9" fill="#1B2A4A">20%</text>
  <text x="218" y="113" font-size="9" fill="#1B2A4A">12%</text>
  <text x="270" y="113" font-size="9" fill="#991B1B" font-weight="600">−₦4.8M</text>
  <rect x="358" y="102" width="76" height="14" fill="#FEE2E2" rx="3"/>
  <text x="396" y="113" text-anchor="middle" font-size="8" fill="#991B1B" font-weight="700">LOSS-MAKING</text>
  <!-- Row 3 - profitable -->
  <rect x="18" y="120" width="424" height="22" fill="white"/>
  <text x="26" y="135" font-size="9" fill="#1B2A4A">Bundle Deal — SKU C</text>
  <text x="164" y="135" font-size="9" fill="#1B2A4A">15%</text>
  <text x="218" y="135" font-size="9" fill="#1B2A4A">35%</text>
  <text x="270" y="135" font-size="9" fill="#065F46" font-weight="600">+₦1.4M</text>
  <rect x="358" y="124" width="76" height="14" fill="#DCFCE7" rx="3"/>
  <text x="396" y="135" text-anchor="middle" font-size="8" fill="#065F46" font-weight="700">PROFITABLE</text>
  <!-- Row 4 - loss-making -->
  <rect x="18" y="142" width="424" height="22" fill="#FFF8F8"/>
  <text x="26" y="157" font-size="9" fill="#1B2A4A">30% Off — SKU D</text>
  <text x="164" y="157" font-size="9" fill="#1B2A4A">30%</text>
  <text x="218" y="157" font-size="9" fill="#1B2A4A">18%</text>
  <text x="270" y="157" font-size="9" fill="#991B1B" font-weight="600">−₦7.2M</text>
  <rect x="358" y="146" width="76" height="14" fill="#FEE2E2" rx="3"/>
  <text x="396" y="157" text-anchor="middle" font-size="8" fill="#991B1B" font-weight="700">LOSS-MAKING</text>
  <!-- Row 5 - loss-making -->
  <rect x="18" y="164" width="424" height="22" fill="#FFF8F8"/>
  <text x="26" y="179" font-size="9" fill="#1B2A4A">BOGOF — SKU E</text>
  <text x="164" y="179" font-size="9" fill="#1B2A4A">50%</text>
  <text x="218" y="179" font-size="9" fill="#1B2A4A">31%</text>
  <text x="270" y="179" font-size="9" fill="#991B1B" font-weight="600">−₦9.6M</text>
  <rect x="358" y="168" width="76" height="14" fill="#FEE2E2" rx="3"/>
  <text x="396" y="179" text-anchor="middle" font-size="8" fill="#991B1B" font-weight="700">LOSS-MAKING</text>
  <!-- Row 6 - profitable -->
  <rect x="18" y="186" width="424" height="22" fill="white"/>
  <text x="26" y="201" font-size="9" fill="#1B2A4A">Listing Fee Support — SKU F</text>
  <text x="164" y="201" font-size="9" fill="#1B2A4A">10%</text>
  <text x="218" y="201" font-size="9" fill="#1B2A4A">22%</text>
  <text x="270" y="201" font-size="9" fill="#065F46" font-weight="600">+₦0.9M</text>
  <rect x="358" y="190" width="76" height="14" fill="#DCFCE7" rx="3"/>
  <text x="396" y="201" text-anchor="middle" font-size="8" fill="#065F46" font-weight="700">PROFITABLE</text>
  <!-- Divider -->
  <line x1="18" y1="216" x2="442" y2="216" stroke="#E2E8F0" stroke-width="1"/>
  <!-- Callout row -->
  <rect x="18" y="226" width="184" height="20" fill="#FEE2E2" rx="4"/>
  <text x="26" y="240" font-size="9" fill="#991B1B" font-weight="600">3 of 6 promos are loss-making</text>
  <rect x="210" y="226" width="232" height="20" fill="#FEE2E2" rx="4"/>
  <text x="218" y="240" font-size="9" fill="#991B1B" font-weight="600">Total loss: ₦21.6M/mo vs ₦4.4M gain</text>
  <!-- Break-even callout -->
  <rect x="18" y="252" width="300" height="36" fill="#F3E8FF" rx="4"/>
  <text x="26" y="266" font-size="9" fill="#6D28D9" font-weight="600">Break-even lift required on SKU D: 45% — actual lift: 18%</text>
  <text x="26" y="282" font-size="9" fill="#6D28D9">Reduce depth to 12% or renegotiate co-funded spend</text>
</svg>
