<svg viewBox="0 0 460 300" xmlns="http://www.w3.org/2000/svg" font-family="DM Sans, sans-serif">
  <rect width="460" height="300" fill="#F8FAFC" rx="12"/>
  <rect width="460" height="44" fill="#1B2A4A" rx="12"/>
  <rect y="32" width="460" height="12" fill="#1B2A4A"/>
  <text x="18" y="28" font-size="12" font-weight="700" fill="white">P3 · Client Mix Analysis</text>
  <rect x="344" y="12" width="100" height="20" fill="#0D8F8F" rx="10"/>
  <text x="394" y="26" text-anchor="middle" font-size="10" font-weight="600" fill="white">IT Services</text>
  <text x="18" y="68" font-size="9" fill="#64748B">Net Margin by Client — after Delivery and Support Costs</text>
  <!-- Client A -->
  <text x="18" y="95" font-size="10" fill="#1B2A4A" font-weight="600">Client A (Retainer)</text>
  <rect x="165" y="83" width="180" height="14" fill="#0D8F8F" rx="2" opacity="0.85"/>
  <text x="349" y="93" font-size="9" fill="#0D8F8F" font-weight="700">38.2%</text>
  <!-- Client B -->
  <text x="18" y="119" font-size="10" fill="#1B2A4A" font-weight="600">Client B (Project)</text>
  <rect x="165" y="107" width="148" height="14" fill="#0D8F8F" rx="2" opacity="0.7"/>
  <text x="317" y="117" font-size="9" fill="#0D8F8F" font-weight="700">31.5%</text>
  <!-- Client C -->
  <text x="18" y="143" font-size="10" fill="#1B2A4A" font-weight="600">Client C (Managed)</text>
  <rect x="165" y="131" width="116" height="14" fill="#D4A843" rx="2" opacity="0.8"/>
  <text x="285" y="141" font-size="9" fill="#D4A843" font-weight="700">24.7%</text>
  <!-- Client D -->
  <text x="18" y="167" font-size="10" fill="#1B2A4A" font-weight="600">Client D (Project)</text>
  <rect x="165" y="155" width="72" height="14" fill="#D4A843" rx="2" opacity="0.6"/>
  <text x="241" y="165" font-size="9" fill="#D4A843" font-weight="700">15.3%</text>
  <!-- Client E -->
  <text x="18" y="191" font-size="10" fill="#1B2A4A" font-weight="600">Client E (Support)</text>
  <rect x="165" y="179" width="40" height="14" fill="#C0392B" rx="2" opacity="0.7"/>
  <text x="209" y="189" font-size="9" fill="#C0392B" font-weight="700">8.4%</text>
  <text x="222" y="189" font-size="8" fill="#C0392B">← below 12% target</text>
  <!-- Client F -->
  <text x="18" y="215" font-size="10" fill="#1B2A4A" font-weight="600">Client F (Ad hoc)</text>
  <rect x="165" y="203" width="20" height="14" fill="#C0392B" rx="2" opacity="0.8"/>
  <text x="189" y="213" font-size="9" fill="#C0392B" font-weight="700">−3.2%</text>
  <text x="237" y="213" font-size="8" fill="#C0392B">← loss-making</text>
  <!-- Baseline and target lines -->
  <line x1="165" y1="78" x2="165" y2="222" stroke="#CBD5E1" stroke-width="1"/>
  <line x1="222" y1="78" x2="222" y2="222" stroke="#0D8F8F" stroke-width="1" stroke-dasharray="4,3" opacity="0.5"/>
  <text x="224" y="77" font-size="7" fill="#0D8F8F">Target 12%</text>
  <line x1="18" y1="232" x2="442" y2="232" stroke="#E2E8F0" stroke-width="1"/>
  <rect x="18" y="244" width="200" height="20" fill="#DCFCE7" rx="4"/>
  <text x="26" y="258" font-size="9" fill="#065F46" font-weight="600">Retainer clients: 2.5× margin of ad hoc work</text>
  <rect x="226" y="244" width="216" height="20" fill="#FEE2E2" rx="4"/>
  <text x="234" y="258" font-size="9" fill="#991B1B" font-weight="600">Client F: costs more to serve than it earns</text>
  <rect x="18" y="268" width="240" height="20" fill="#EFF6FF" rx="4"/>
  <text x="26" y="282" font-size="9" fill="#1D4ED8" font-weight="600">Support overhead: avg 28 hrs per client/month included</text>
</svg>
