<svg viewBox="0 0 460 300" xmlns="http://www.w3.org/2000/svg" font-family="DM Sans, sans-serif">
  <rect width="460" height="300" fill="#F8FAFC" rx="12"/>
  <rect width="460" height="44" fill="#1B2A4A" rx="12"/>
  <rect y="32" width="460" height="12" fill="#1B2A4A"/>
  <text x="18" y="28" font-size="12" font-weight="700" fill="white">P2 · Cost Pass-Through</text>
  <rect x="344" y="12" width="100" height="20" fill="#0D8F8F" rx="10"/>
  <text x="394" y="26" text-anchor="middle" font-size="10" font-weight="600" fill="white">IT Services</text>
  <text x="18" y="68" font-size="9" fill="#64748B">Cost Waterfall — Billable Rate vs. Fully-Loaded Delivery Cost</text>
  <!-- Base salary -->
  <text x="18" y="96" font-size="9" fill="#64748B">Base salary cost</text>
  <rect x="155" y="83" width="148" height="18" fill="#1B2A4A" rx="2" opacity="0.65"/>
  <text x="307" y="96" font-size="9" fill="#1B2A4A" font-weight="700">₦18.4k</text>
  <!-- FX licences -->
  <text x="18" y="122" font-size="9" fill="#64748B">+ FX licence cost</text>
  <rect x="155" y="109" width="76" height="18" fill="#C0392B" rx="2" opacity="0.7"/>
  <text x="235" y="122" font-size="9" fill="#C0392B" font-weight="700">+₦9.4k  ↑51%</text>
  <!-- Overhead -->
  <text x="18" y="148" font-size="9" fill="#64748B">+ Overhead &amp; mgmt</text>
  <rect x="155" y="135" width="52" height="18" fill="#D4A843" rx="2" opacity="0.75"/>
  <text x="211" y="148" font-size="9" fill="#D4A843" font-weight="700">+₦6.5k</text>
  <!-- Total cost -->
  <line x1="155" y1="162" x2="420" y2="162" stroke="#CBD5E1" stroke-width="0.75" stroke-dasharray="3,2"/>
  <text x="18" y="178" font-size="9" fill="#64748B">Total cost/hr</text>
  <rect x="155" y="165" width="228" height="18" fill="#1B2A4A" rx="2" opacity="0.85"/>
  <text x="387" y="178" font-size="9" fill="white" font-weight="700">₦34.3k</text>
  <!-- Benchmark line -->
  <line x1="155" y1="193" x2="275" y2="193" stroke="#0D8F8F" stroke-width="1.5" stroke-dasharray="5,3"/>
  <text x="280" y="197" font-size="8" fill="#0D8F8F">Benchmark recovery 72%</text>
  <!-- Current recovery -->
  <text x="18" y="213" font-size="9" fill="#64748B">Current billing rate</text>
  <rect x="155" y="200" width="160" height="18" fill="#0D8F8F" rx="2" opacity="0.7"/>
  <text x="319" y="213" font-size="9" fill="#0D8F8F" font-weight="700">₦27k  →  78.7%</text>
  <!-- Gap -->
  <text x="18" y="236" font-size="9" fill="#64748B">Unrecovered gap</text>
  <rect x="155" y="223" width="68" height="18" fill="#C0392B" rx="2" opacity="0.5"/>
  <text x="227" y="236" font-size="9" fill="#C0392B" font-weight="700">₦7.3k/hr not recovered</text>
  <line x1="18" y1="252" x2="442" y2="252" stroke="#E2E8F0" stroke-width="1"/>
  <rect x="18" y="264" width="212" height="20" fill="#FEE2E2" rx="4"/>
  <text x="26" y="278" font-size="9" fill="#991B1B" font-weight="600">FX licence cost up 51% since Jan 2023</text>
  <rect x="238" y="264" width="204" height="20" fill="#EFF6FF" rx="4"/>
  <text x="246" y="278" font-size="9" fill="#1D4ED8" font-weight="600">Rate escalation clause required in all contracts</text>
</svg>
