<svg viewBox="0 0 460 300" xmlns="http://www.w3.org/2000/svg" font-family="system-ui, -apple-system, sans-serif">
  <rect width="460" height="300" fill="#F8FAFC" rx="12"/>
  <rect width="460" height="44" fill="#1B2A4A" rx="12"/>
  <rect y="32" width="460" height="12" fill="#1B2A4A"/>
  <text x="18" y="28" font-size="12" font-weight="700" fill="white">P3 · Customer Mix Analysis</text>
  <rect x="360" y="12" width="84" height="20" fill="#D4A843" rx="10"/>
  <text x="402" y="26" text-anchor="middle" font-size="10" font-weight="600" fill="white">Logistics</text>
  <!-- Customer profitability matrix -->
  <text x="18" y="68" font-size="9" fill="#64748B">Net Margin per Customer after Fully-Loaded Service Cost</text>
  <!-- Horizontal bar chart -->
  <text x="18" y="90" font-size="9" fill="#1B2A4A" font-weight="600">Dangote Group</text>
  <rect x="160" y="78" width="192" height="16" fill="#0D9488" rx="2"/>
  <text x="356" y="90" font-size="9" fill="#0D9488" font-weight="700">₦12.8M</text>
  <text x="18" y="114" font-size="9" fill="#1B2A4A" font-weight="600">Flour Mills</text>
  <rect x="160" y="102" width="152" height="16" fill="#0D9488" rx="2" opacity="0.8"/>
  <text x="316" y="114" font-size="9" fill="#0D9488" font-weight="700">₦10.2M</text>
  <text x="18" y="138" font-size="9" fill="#1B2A4A" font-weight="600">PZ Cussons</text>
  <rect x="160" y="126" width="112" height="16" fill="#D4A843" rx="2" opacity="0.85"/>
  <text x="276" y="138" font-size="9" fill="#D4A843" font-weight="700">₦7.5M</text>
  <text x="18" y="162" font-size="9" fill="#1B2A4A" font-weight="600">Nestlé</text>
  <rect x="160" y="150" width="82" height="16" fill="#D4A843" rx="2" opacity="0.65"/>
  <text x="246" y="162" font-size="9" fill="#D4A843" font-weight="700">₦5.5M</text>
  <text x="18" y="186" font-size="9" fill="#1B2A4A" font-weight="600">Unilever</text>
  <rect x="160" y="174" width="36" height="16" fill="#EF4444" rx="2" opacity="0.7"/>
  <text x="200" y="186" font-size="9" fill="#EF4444" font-weight="700">₦2.4M</text>
  <text x="255" y="186" font-size="8" fill="#EF4444">← high deadhead cost</text>
  <text x="18" y="210" font-size="9" fill="#1B2A4A" font-weight="600">SARO Agro</text>
  <rect x="160" y="198" width="18" height="16" fill="#EF4444" rx="2" opacity="0.5"/>
  <text x="182" y="210" font-size="9" fill="#EF4444" font-weight="700">₦1.2M</text>
  <text x="242" y="210" font-size="8" fill="#EF4444">← 90-day payment terms</text>
  <!-- Divider -->
  <line x1="18" y1="222" x2="442" y2="222" stroke="#E2E8F0" stroke-width="1"/>
  <!-- Summary -->
  <text x="18" y="240" font-size="9" fill="#64748B">Top 2 customers</text>
  <text x="120" y="240" font-size="10" font-weight="700" fill="#0D9488">₦23M</text>
  <text x="180" y="240" font-size="9" fill="#64748B">= 59% of fleet contribution</text>
  <text x="18" y="256" font-size="9" fill="#64748B">Avg payment terms</text>
  <text x="130" y="256" font-size="10" font-weight="700" fill="#DC2626">68 days</text>
  <text x="200" y="256" font-size="9" fill="#64748B">vs 30-day standard</text>
  <!-- Callout row -->
  <rect x="18" y="268" width="196" height="24" fill="#FEF3C7" rx="4"/>
  <text x="26" y="280" font-size="9" fill="#92400E" font-weight="600">Credit cost: ₦4.1M/month unpriced</text>
  <text x="26" y="290" font-size="8" fill="#92400E">SARO &amp; Unilever: renegotiate or exit</text>
  <rect x="222" y="268" width="220" height="24" fill="#DCFCE7" rx="4"/>
  <text x="230" y="280" font-size="9" fill="#065F46" font-weight="600">Dangote &amp; Flour Mills: defend &amp; upsell</text>
  <text x="230" y="290" font-size="8" fill="#065F46">High-margin — prioritise capacity allocation</text>
</svg>
