<svg viewBox="0 0 460 300" xmlns="http://www.w3.org/2000/svg" font-family="system-ui, -apple-system, sans-serif">
  <rect width="460" height="300" fill="#F8FAFC" rx="12"/>
  <rect width="460" height="44" fill="#1B2A4A" rx="12"/>
  <rect y="32" width="460" height="12" fill="#1B2A4A"/>
  <text x="18" y="28" font-size="12" font-weight="700" fill="white">P3 · Channel Economics</text>
  <rect x="340" y="12" width="104" height="20" fill="#D4A843" rx="10"/>
  <text x="392" y="26" text-anchor="middle" font-size="10" font-weight="600" fill="white">Manufacturing</text>
  <!-- Channel breakdown: revenue share vs net margin -->
  <text x="18" y="68" font-size="9" fill="#64748B">Revenue Share vs Net Contribution Margin — by Route to Market</text>
  <!-- Legend -->
  <rect x="320" y="56" width="12" height="10" fill="#1B2A4A" rx="2"/>
  <text x="336" y="65" font-size="8" fill="#64748B">Revenue %</text>
  <rect x="380" y="56" width="12" height="10" fill="#0D9488" rx="2"/>
  <text x="396" y="65" font-size="8" fill="#64748B">Margin %</text>
  <!-- OEM Direct -->
  <text x="18" y="90" font-size="10" fill="#1B2A4A" font-weight="600">OEM Direct</text>
  <rect x="160" y="78" width="168" height="14" fill="#1B2A4A" rx="2" opacity="0.85"/>
  <rect x="160" y="92" width="196" height="14" fill="#0D9488" rx="2"/>
  <text x="332" y="90" font-size="9" fill="#64748B">42%</text>
  <text x="360" y="105" font-size="9" fill="#0D9488" font-weight="700">49%</text>
  <!-- Distributor Network -->
  <text x="18" y="128" font-size="10" fill="#1B2A4A" font-weight="600">Distributor Net.</text>
  <rect x="160" y="116" width="140" height="14" fill="#1B2A4A" rx="2" opacity="0.6"/>
  <rect x="160" y="130" width="100" height="14" fill="#0D9488" rx="2" opacity="0.7"/>
  <text x="304" y="128" font-size="9" fill="#64748B">35%</text>
  <text x="264" y="144" font-size="9" fill="#0D9488" font-weight="700">25%</text>
  <!-- Export -->
  <text x="18" y="166" font-size="10" fill="#1B2A4A" font-weight="600">Export</text>
  <rect x="160" y="154" width="60" height="14" fill="#1B2A4A" rx="2" opacity="0.5"/>
  <rect x="160" y="168" width="76" height="14" fill="#D4A843" rx="2" opacity="0.8"/>
  <text x="224" y="166" font-size="9" fill="#64748B">15%</text>
  <text x="240" y="182" font-size="9" fill="#D4A843" font-weight="700">19%</text>
  <!-- Retail Own Label -->
  <text x="18" y="204" font-size="10" fill="#1B2A4A" font-weight="600">Retail Own Label</text>
  <rect x="160" y="192" width="32" height="14" fill="#1B2A4A" rx="2" opacity="0.4"/>
  <rect x="160" y="206" width="22" height="14" fill="#EF4444" rx="2" opacity="0.7"/>
  <text x="196" y="204" font-size="9" fill="#64748B">8%</text>
  <text x="186" y="220" font-size="9" fill="#EF4444" font-weight="700">6%</text>
  <text x="210" y="220" font-size="8" fill="#EF4444">← dilutive</text>
  <!-- Divider -->
  <line x1="18" y1="236" x2="442" y2="236" stroke="#E2E8F0" stroke-width="1"/>
  <!-- Callout -->
  <rect x="18" y="248" width="212" height="20" fill="#DCFCE7" rx="4"/>
  <text x="26" y="262" font-size="9" fill="#065F46" font-weight="600">OEM Direct: highest margin per unit sold</text>
  <rect x="238" y="248" width="204" height="20" fill="#FEE2E2" rx="4"/>
  <text x="246" y="262" font-size="9" fill="#991B1B" font-weight="600">Retail Own Label: revenue costs more than earns</text>
  <rect x="18" y="272" width="200" height="20" fill="#EFF6FF" rx="4"/>
  <text x="26" y="286" font-size="9" fill="#1D4ED8" font-weight="600">Credit cost included — avg 45 day terms</text>
</svg>
