<svg viewBox="0 0 460 300" xmlns="http://www.w3.org/2000/svg" font-family="system-ui, -apple-system, sans-serif">
  <rect width="460" height="300" fill="#F8FAFC" rx="12"/>
  <rect width="460" height="44" fill="#1B2A4A" rx="12"/>
  <rect y="32" width="460" height="12" fill="#1B2A4A"/>
  <text x="18" y="28" font-size="12" font-weight="700" fill="white">P4 · Trade Execution</text>
  <rect x="382" y="12" width="62" height="20" fill="#7C3AED" rx="10"/>
  <text x="413" y="26" text-anchor="middle" font-size="10" font-weight="600" fill="white">Retail</text>
  <!-- Net impact bubble chart: spend vs return per campaign -->
  <text x="18" y="68" font-size="9" fill="#64748B">Trade Spend vs Net Return — This Period (bubble = spend size)</text>
  <!-- Axes -->
  <line x1="100" y1="210" x2="420" y2="210" stroke="#CBD5E1" stroke-width="1"/>
  <line x1="100" y1="65" x2="100" y2="210" stroke="#CBD5E1" stroke-width="1"/>
  <!-- Zero-return line (horizontal through axis midpoint) -->
  <line x1="100" y1="138" x2="420" y2="138" stroke="#64748B" stroke-width="1" stroke-dasharray="4,3" opacity="0.6"/>
  <text x="104" y="135" font-size="8" fill="#64748B">Break-even</text>
  <text x="226" y="224" text-anchor="middle" font-size="8" fill="#94A3B8">Trade Spend (₦)</text>
  <text x="30" y="140" transform="rotate(-90 30 140)" font-size="8" fill="#94A3B8" text-anchor="middle">Net Return (₦)</text>
  <!-- Profitable bubbles (above break-even) -->
  <circle cx="180" cy="90" r="14" fill="#0D9488" opacity="0.75"/>
  <text x="180" y="88" text-anchor="middle" font-size="8" fill="white" font-weight="700">A</text>
  <text x="180" y="98" text-anchor="middle" font-size="7" fill="white">+₦2.9M</text>
  <circle cx="270" cy="100" r="10" fill="#0D9488" opacity="0.65"/>
  <text x="270" y="103" text-anchor="middle" font-size="7" fill="white" font-weight="700">C +₦1.4M</text>
  <circle cx="150" cy="112" r="8" fill="#D4A843" opacity="0.75"/>
  <text x="150" y="115" text-anchor="middle" font-size="7" fill="white" font-weight="700">B</text>
  <!-- Loss-making bubbles (below break-even) -->
  <circle cx="310" cy="168" r="16" fill="#EF4444" opacity="0.7"/>
  <text x="310" y="166" text-anchor="middle" font-size="8" fill="white" font-weight="700">D</text>
  <text x="310" y="176" text-anchor="middle" font-size="7" fill="white">−₦5.1M</text>
  <circle cx="370" cy="178" r="20" fill="#EF4444" opacity="0.55"/>
  <text x="370" y="176" text-anchor="middle" font-size="8" fill="white" font-weight="700">E</text>
  <text x="370" y="186" text-anchor="middle" font-size="7" fill="white">−₦8.7M</text>
  <circle cx="220" cy="158" r="12" fill="#EF4444" opacity="0.6"/>
  <text x="220" y="161" text-anchor="middle" font-size="7" fill="white" font-weight="700">F −₦3.2M</text>
  <!-- Annotation for E -->
  <line x1="390" y1="165" x2="412" y2="150" stroke="#DC2626" stroke-width="1"/>
  <rect x="386" y="136" width="52" height="26" fill="#FEE2E2" rx="3"/>
  <text x="412" y="148" text-anchor="middle" font-size="8" fill="#991B1B" font-weight="600">BOGOF</text>
  <text x="412" y="158" text-anchor="middle" font-size="7" fill="#991B1B">Shelf display</text>
  <!-- Callout -->
  <rect x="18" y="230" width="180" height="20" fill="#FEE2E2" rx="4"/>
  <text x="26" y="244" font-size="9" fill="#991B1B" font-weight="600">3 campaigns loss-making (D, E, F)</text>
  <rect x="206" y="230" width="236" height="20" fill="#FEE2E2" rx="4"/>
  <text x="214" y="244" font-size="9" fill="#991B1B" font-weight="600">Net loss from D+E+F: ₦17M vs ₦4.3M gain</text>
  <rect x="18" y="254" width="300" height="20" fill="#F3E8FF" rx="4"/>
  <text x="26" y="268" font-size="9" fill="#6D28D9" font-weight="600">Campaign E: requires 62% volume lift — actual recorded: 19%</text>
  <rect x="18" y="278" width="230" height="14" fill="#DCFCE7" rx="3"/>
  <text x="26" y="289" font-size="8" fill="#065F46" font-weight="600">Redirect E &amp; F budget to Campaign A model — ₦6.2M recoverable</text>
</svg>
