<svg viewBox="0 0 460 300" xmlns="http://www.w3.org/2000/svg" font-family="DM Sans, sans-serif">
  <rect width="460" height="300" fill="#F8FAFC" rx="12"/>
  <rect width="460" height="44" fill="#1B2A4A" rx="12"/>
  <rect y="32" width="460" height="12" fill="#1B2A4A"/>
  <text x="18" y="28" font-size="12" font-weight="700" fill="white">P2 · Energy Cost Recovery</text>
  <rect x="344" y="12" width="100" height="20" fill="#D4A843" rx="10"/>
  <text x="394" y="26" text-anchor="middle" font-size="10" font-weight="600" fill="white">Telecoms</text>
  <text x="18" y="68" font-size="9" fill="#64748B">Cost Waterfall — Network Infrastructure Cost per Subscriber</text>
  <!-- Spectrum -->
  <text x="18" y="96" font-size="9" fill="#64748B">Spectrum &amp; licence</text>
  <rect x="155" y="83" width="128" height="18" fill="#1B2A4A" rx="2" opacity="0.65"/>
  <text x="287" y="96" font-size="9" fill="#1B2A4A" font-weight="700">₦12.8k</text>
  <!-- Tower & diesel -->
  <text x="18" y="122" font-size="9" fill="#64748B">+ Tower &amp; diesel cost</text>
  <rect x="155" y="109" width="100" height="18" fill="#C0392B" rx="2" opacity="0.72"/>
  <text x="259" y="122" font-size="9" fill="#C0392B" font-weight="700">+₦10.0k  ↑63%</text>
  <!-- Backhaul -->
  <text x="18" y="148" font-size="9" fill="#64748B">+ Backhaul &amp; fibre</text>
  <rect x="155" y="135" width="64" height="18" fill="#D4A843" rx="2" opacity="0.75"/>
  <text x="223" y="148" font-size="9" fill="#D4A843" font-weight="700">+₦6.4k</text>
  <!-- Maintenance -->
  <text x="18" y="174" font-size="9" fill="#64748B">+ Network maintenance</text>
  <rect x="155" y="161" width="44" height="18" fill="#D4A843" rx="2" opacity="0.6"/>
  <text x="203" y="174" font-size="9" fill="#D4A843" font-weight="700">+₦4.4k</text>
  <!-- Total cost -->
  <line x1="155" y1="188" x2="420" y2="188" stroke="#CBD5E1" stroke-width="0.75" stroke-dasharray="3,2"/>
  <text x="18" y="204" font-size="9" fill="#64748B">Total cost/sub/mo</text>
  <rect x="155" y="191" width="280" height="18" fill="#1B2A4A" rx="2" opacity="0.85"/>
  <text x="440" y="204" text-anchor="end" font-size="9" fill="white" font-weight="700">₦33.6k</text>
  <!-- Benchmark line -->
  <line x1="155" y1="218" x2="272" y2="218" stroke="#0D8F8F" stroke-width="1.5" stroke-dasharray="5,3"/>
  <text x="277" y="222" font-size="8" fill="#0D8F8F">Benchmark recovery 71%</text>
  <!-- Current pricing -->
  <text x="18" y="236" font-size="9" fill="#64748B">Avg. revenue/sub/mo</text>
  <rect x="155" y="223" width="238" height="18" fill="#0D8F8F" rx="2" opacity="0.7"/>
  <text x="397" y="236" font-size="9" fill="#0D8F8F" font-weight="700">₦25.6k (76%)</text>
  <line x1="18" y1="252" x2="442" y2="252" stroke="#E2E8F0" stroke-width="1"/>
  <rect x="18" y="264" width="212" height="20" fill="#FEE2E2" rx="4"/>
  <text x="26" y="278" font-size="9" fill="#991B1B" font-weight="600">Tower diesel: +63% yr-on-yr contribution</text>
  <rect x="238" y="264" width="204" height="20" fill="#EFF6FF" rx="4"/>
  <text x="246" y="278" font-size="9" fill="#1D4ED8" font-weight="600">₦8k/sub gap on entry-tier data bundles</text>
</svg>
