<svg viewBox="0 0 460 300" xmlns="http://www.w3.org/2000/svg" font-family="DM Sans, sans-serif">
  <rect width="460" height="300" fill="#F8FAFC" rx="12"/>
  <rect width="460" height="44" fill="#1B2A4A" rx="12"/>
  <rect y="32" width="460" height="12" fill="#1B2A4A"/>
  <text x="18" y="28" font-size="12" font-weight="700" fill="white">P3 · Channel &amp; Segment Mix</text>
  <rect x="344" y="12" width="100" height="20" fill="#D4A843" rx="10"/>
  <text x="394" y="26" text-anchor="middle" font-size="10" font-weight="600" fill="white">Telecoms</text>
  <text x="18" y="68" font-size="9" fill="#64748B">Revenue Share vs. Net Margin Contribution — by Segment</text>
  <rect x="290" y="56" width="12" height="10" fill="#1B2A4A" rx="2" opacity="0.7"/>
  <text x="306" y="65" font-size="8" fill="#64748B">Revenue %</text>
  <rect x="370" y="56" width="12" height="10" fill="#0D8F8F" rx="2"/>
  <text x="386" y="65" font-size="8" fill="#64748B">Margin %</text>
  <!-- Enterprise -->
  <text x="18" y="95" font-size="10" fill="#1B2A4A" font-weight="600">Enterprise</text>
  <rect x="155" y="83" width="84" height="14" fill="#1B2A4A" rx="2" opacity="0.7"/>
  <rect x="155" y="97" width="168" height="14" fill="#0D8F8F" rx="2"/>
  <text x="243" y="94" font-size="9" fill="#64748B">21%</text>
  <text x="327" y="111" font-size="9" fill="#0D8F8F" font-weight="700">42%</text>
  <!-- Postpaid SME -->
  <text x="18" y="131" font-size="10" fill="#1B2A4A" font-weight="600">Postpaid (SME)</text>
  <rect x="155" y="119" width="128" height="14" fill="#1B2A4A" rx="2" opacity="0.6"/>
  <rect x="155" y="133" width="120" height="14" fill="#0D8F8F" rx="2" opacity="0.75"/>
  <text x="287" y="130" font-size="9" fill="#64748B">32%</text>
  <text x="279" y="147" font-size="9" fill="#0D8F8F" font-weight="700">30%</text>
  <!-- Wholesale -->
  <text x="18" y="167" font-size="10" fill="#1B2A4A" font-weight="600">Wholesale</text>
  <rect x="155" y="155" width="60" height="14" fill="#1B2A4A" rx="2" opacity="0.5"/>
  <rect x="155" y="169" width="76" height="14" fill="#D4A843" rx="2" opacity="0.8"/>
  <text x="219" y="166" font-size="9" fill="#64748B">15%</text>
  <text x="235" y="183" font-size="9" fill="#D4A843" font-weight="700">19%</text>
  <!-- Prepaid Consumer -->
  <text x="18" y="203" font-size="10" fill="#1B2A4A" font-weight="600">Prepaid Consumer</text>
  <rect x="155" y="191" width="128" height="14" fill="#1B2A4A" rx="2" opacity="0.7"/>
  <rect x="155" y="205" width="28" height="14" fill="#C0392B" rx="2" opacity="0.75"/>
  <text x="287" y="202" font-size="9" fill="#64748B">32%</text>
  <text x="187" y="219" font-size="9" fill="#C0392B" font-weight="700">7%</text>
  <text x="210" y="219" font-size="8" fill="#C0392B">← dilutive at scale</text>
  <line x1="18" y1="234" x2="442" y2="234" stroke="#E2E8F0" stroke-width="1"/>
  <rect x="18" y="246" width="200" height="20" fill="#DCFCE7" rx="4"/>
  <text x="26" y="260" font-size="9" fill="#065F46" font-weight="600">Enterprise: 21% revenue → 42% of margin</text>
  <rect x="226" y="246" width="216" height="20" fill="#FEE2E2" rx="4"/>
  <text x="234" y="260" font-size="9" fill="#991B1B" font-weight="600">Prepaid: 32% revenue → only 7% of margin</text>
  <rect x="18" y="270" width="260" height="20" fill="#EFF6FF" rx="4"/>
  <text x="26" y="284" font-size="9" fill="#1D4ED8" font-weight="600">Acq. cost included — avg ₦3.8k per consumer sub</text>
</svg>
