<svg viewBox="0 0 460 300" xmlns="http://www.w3.org/2000/svg" font-family="DM Sans, sans-serif">
  <rect width="460" height="300" fill="#F8FAFC" rx="12"/>
  <rect width="460" height="44" fill="#1B2A4A" rx="12"/>
  <rect y="32" width="460" height="12" fill="#1B2A4A"/>
  <text x="18" y="28" font-size="12" font-weight="700" fill="white">P1 · Product Rate Intelligence</text>
  <rect x="344" y="12" width="100" height="20" fill="#D4A843" rx="10"/>
  <text x="394" y="26" text-anchor="middle" font-size="10" font-weight="600" fill="white">Telecoms</text>
  <text x="18" y="68" font-size="9" fill="#64748B">Revenue per Sub vs. Cost Floor — by Product Tier</text>
  <rect x="290" y="56" width="12" height="10" fill="#0D8F8F" rx="2"/>
  <text x="306" y="65" font-size="8" fill="#64748B">Rev/sub</text>
  <rect x="358" y="56" width="12" height="10" fill="#1B2A4A" rx="2" opacity="0.4"/>
  <text x="374" y="65" font-size="8" fill="#64748B">Cost floor</text>
  <!-- Enterprise SLA -->
  <text x="18" y="92" font-size="10" fill="#1B2A4A" font-weight="600">Enterprise SLA</text>
  <rect x="155" y="80" width="188" height="14" fill="#0D8F8F" rx="2" opacity="0.85"/>
  <rect x="155" y="94" width="120" height="14" fill="#1B2A4A" rx="2" opacity="0.3"/>
  <text x="347" y="91" font-size="9" fill="#0D8F8F" font-weight="700">₦85k/mo</text>
  <text x="279" y="108" font-size="9" fill="#64748B">floor ₦54k</text>
  <!-- Postpaid Premium -->
  <text x="18" y="128" font-size="10" fill="#1B2A4A" font-weight="600">Postpaid Premium</text>
  <rect x="155" y="116" width="140" height="14" fill="#0D8F8F" rx="2" opacity="0.75"/>
  <rect x="155" y="130" width="108" height="14" fill="#1B2A4A" rx="2" opacity="0.3"/>
  <text x="299" y="127" font-size="9" fill="#0D8F8F" font-weight="700">₦63k/mo</text>
  <text x="267" y="144" font-size="9" fill="#64748B">floor ₦49k</text>
  <!-- Data Bundles -->
  <text x="18" y="164" font-size="10" fill="#1B2A4A" font-weight="600">Data Bundles</text>
  <rect x="155" y="152" width="88" height="14" fill="#D4A843" rx="2" opacity="0.8"/>
  <rect x="155" y="166" width="104" height="14" fill="#1B2A4A" rx="2" opacity="0.3"/>
  <text x="247" y="163" font-size="9" fill="#D4A843" font-weight="700">₦39.5k</text>
  <text x="263" y="180" font-size="9" fill="#C0392B" font-weight="600">floor ₦46.8k ⚠</text>
  <!-- Prepaid Voice -->
  <text x="18" y="200" font-size="10" fill="#1B2A4A" font-weight="600">Prepaid Voice</text>
  <rect x="155" y="188" width="56" height="14" fill="#C0392B" rx="2" opacity="0.75"/>
  <rect x="155" y="202" width="96" height="14" fill="#1B2A4A" rx="2" opacity="0.3"/>
  <text x="215" y="199" font-size="9" fill="#C0392B" font-weight="700">₦25k</text>
  <text x="255" y="216" font-size="9" fill="#C0392B" font-weight="600">floor ₦43.2k ⚠</text>
  <line x1="18" y1="232" x2="442" y2="232" stroke="#E2E8F0" stroke-width="1"/>
  <rect x="18" y="244" width="200" height="20" fill="#DCFCE7" rx="4"/>
  <text x="26" y="258" font-size="9" fill="#065F46" font-weight="600">Enterprise: ₦31k/sub headroom above floor</text>
  <rect x="226" y="244" width="216" height="20" fill="#FEE2E2" rx="4"/>
  <text x="234" y="258" font-size="9" fill="#991B1B" font-weight="600">2 tiers below cost floor despite NCC adjustment</text>
  <rect x="18" y="268" width="260" height="20" fill="#EFF6FF" rx="4"/>
  <text x="26" y="282" font-size="9" fill="#1D4ED8" font-weight="600">Energy cost: largest floor driver in 2024</text>
</svg>
